<svg width="228" height="39" viewBox="0 0 228 39" fill="none" xmlns="http://www.w3.org/2000/svg">
<path opacity="0.9" d="M16.768 38.72C14.272 38.72 12.032 38.336 10.048 37.568C8.064 36.8 6.384 35.68 5.008 34.208C3.632 32.704 2.576 30.88 1.84 28.736C1.104 26.592 0.736 24.128 0.736 21.344C0.736 18.56 1.152 16.096 1.984 13.952C2.848 11.808 4.016 10 5.488 8.528C6.96 7.024 8.688 5.888 10.672 5.12C12.656 4.352 14.784 3.968 17.056 3.968C18.432 3.968 19.68 4.08 20.8 4.304C21.92 4.496 22.896 4.72 23.728 4.976C24.56 5.232 25.248 5.504 25.792 5.792C26.336 6.08 26.72 6.288 26.944 6.416L25.168 11.36C24.4 10.88 23.296 10.432 21.856 10.016C20.448 9.568 18.912 9.344 17.248 9.344C15.808 9.344 14.464 9.6 13.216 10.112C11.968 10.592 10.88 11.328 9.952 12.32C9.056 13.312 8.352 14.56 7.84 16.064C7.328 17.568 7.072 19.312 7.072 21.296C7.072 23.056 7.264 24.672 7.648 26.144C8.064 27.616 8.688 28.896 9.52 29.984C10.352 31.04 11.408 31.872 12.688 32.48C13.968 33.056 15.504 33.344 17.296 33.344C19.44 33.344 21.184 33.136 22.528 32.72C23.872 32.272 24.912 31.856 25.648 31.472L27.28 36.416C26.896 36.672 26.368 36.928 25.696 37.184C25.056 37.44 24.288 37.696 23.392 37.952C22.496 38.176 21.488 38.352 20.368 38.48C19.248 38.64 18.048 38.72 16.768 38.72ZM41.0414 38.48C39.3134 38.448 37.8734 38.256 36.7214 37.904C35.6014 37.552 34.7054 37.056 34.0334 36.416C33.3614 35.744 32.8814 34.928 32.5934 33.968C32.3374 32.976 32.2094 31.856 32.2094 30.608V1.712L38.0174 0.751999V29.504C38.0174 30.208 38.0654 30.8 38.1614 31.28C38.2894 31.76 38.4974 32.176 38.7854 32.528C39.0734 32.848 39.4574 33.104 39.9374 33.296C40.4494 33.456 41.0894 33.584 41.8574 33.68L41.0414 38.48ZM55.3874 33.92C57.1794 33.92 58.5394 33.824 59.4674 33.632V27.2C59.1474 27.104 58.6834 27.008 58.0754 26.912C57.4674 26.816 56.7954 26.768 56.0594 26.768C55.4194 26.768 54.7634 26.816 54.0914 26.912C53.4514 27.008 52.8594 27.184 52.3154 27.44C51.8034 27.696 51.3874 28.064 51.0674 28.544C50.7474 28.992 50.5874 29.568 50.5874 30.272C50.5874 31.648 51.0194 32.608 51.8834 33.152C52.7474 33.664 53.9154 33.92 55.3874 33.92ZM54.9074 12.272C56.8274 12.272 58.4434 12.512 59.7554 12.992C61.0674 13.472 62.1074 14.144 62.8754 15.008C63.6754 15.872 64.2354 16.928 64.5554 18.176C64.9074 19.392 65.0834 20.736 65.0834 22.208V37.424C64.1874 37.616 62.8274 37.84 61.0034 38.096C59.2114 38.384 57.1794 38.528 54.9074 38.528C53.4034 38.528 52.0274 38.384 50.7794 38.096C49.5314 37.808 48.4594 37.344 47.5634 36.704C46.6994 36.064 46.0114 35.232 45.4994 34.208C45.0194 33.184 44.7794 31.92 44.7794 30.416C44.7794 28.976 45.0514 27.76 45.5954 26.768C46.1714 25.776 46.9394 24.976 47.8994 24.368C48.8594 23.728 49.9634 23.28 51.2114 23.024C52.4914 22.736 53.8194 22.592 55.1954 22.592C55.8354 22.592 56.5074 22.64 57.2114 22.736C57.9154 22.8 58.6674 22.928 59.4674 23.12V22.16C59.4674 21.488 59.3874 20.848 59.2274 20.24C59.0674 19.632 58.7794 19.104 58.3634 18.656C57.9794 18.176 57.4514 17.808 56.7794 17.552C56.1394 17.296 55.3234 17.168 54.3314 17.168C52.9874 17.168 51.7554 17.264 50.6354 17.456C49.5154 17.648 48.6034 17.872 47.8994 18.128L47.1794 13.424C47.9154 13.168 48.9874 12.912 50.3954 12.656C51.8034 12.4 53.3074 12.272 54.9074 12.272ZM78.484 33.824C80.02 33.824 81.14 33.648 81.844 33.296C82.548 32.912 82.9 32.272 82.9 31.376C82.9 30.544 82.516 29.856 81.748 29.312C81.012 28.768 79.78 28.176 78.052 27.536C76.996 27.152 76.02 26.752 75.124 26.336C74.26 25.888 73.508 25.376 72.868 24.8C72.228 24.224 71.716 23.536 71.332 22.736C70.98 21.904 70.804 20.896 70.804 19.712C70.804 17.408 71.652 15.6 73.348 14.288C75.044 12.944 77.348 12.272 80.26 12.272C81.732 12.272 83.14 12.416 84.484 12.704C85.828 12.96 86.836 13.216 87.508 13.472L86.452 18.176C85.812 17.888 84.996 17.632 84.004 17.408C83.012 17.152 81.86 17.024 80.548 17.024C79.364 17.024 78.404 17.232 77.668 17.648C76.932 18.032 76.564 18.64 76.564 19.472C76.564 19.888 76.628 20.256 76.756 20.576C76.916 20.896 77.172 21.2 77.524 21.488C77.876 21.744 78.34 22.016 78.916 22.304C79.492 22.56 80.196 22.832 81.028 23.12C82.404 23.632 83.572 24.144 84.532 24.656C85.492 25.136 86.276 25.696 86.884 26.336C87.524 26.944 87.988 27.648 88.276 28.448C88.564 29.248 88.708 30.208 88.708 31.328C88.708 33.728 87.812 35.552 86.02 36.8C84.26 38.016 81.732 38.624 78.436 38.624C76.228 38.624 74.452 38.432 73.108 38.048C71.764 37.696 70.82 37.408 70.276 37.184L71.284 32.336C72.148 32.688 73.172 33.024 74.356 33.344C75.572 33.664 76.948 33.824 78.484 33.824ZM100.422 33.824C101.958 33.824 103.078 33.648 103.782 33.296C104.486 32.912 104.838 32.272 104.838 31.376C104.838 30.544 104.454 29.856 103.686 29.312C102.95 28.768 101.718 28.176 99.9895 27.536C98.9335 27.152 97.9575 26.752 97.0615 26.336C96.1975 25.888 95.4455 25.376 94.8055 24.8C94.1655 24.224 93.6535 23.536 93.2695 22.736C92.9175 21.904 92.7415 20.896 92.7415 19.712C92.7415 17.408 93.5895 15.6 95.2855 14.288C96.9815 12.944 99.2855 12.272 102.198 12.272C103.67 12.272 105.078 12.416 106.422 12.704C107.766 12.96 108.774 13.216 109.446 13.472L108.39 18.176C107.75 17.888 106.934 17.632 105.942 17.408C104.95 17.152 103.798 17.024 102.486 17.024C101.302 17.024 100.342 17.232 99.6055 17.648C98.8695 18.032 98.5015 18.64 98.5015 19.472C98.5015 19.888 98.5655 20.256 98.6935 20.576C98.8535 20.896 99.1095 21.2 99.4615 21.488C99.8135 21.744 100.278 22.016 100.854 22.304C101.43 22.56 102.134 22.832 102.966 23.12C104.342 23.632 105.51 24.144 106.47 24.656C107.43 25.136 108.214 25.696 108.822 26.336C109.462 26.944 109.926 27.648 110.214 28.448C110.502 29.248 110.646 30.208 110.646 31.328C110.646 33.728 109.75 35.552 107.958 36.8C106.198 38.016 103.67 38.624 100.374 38.624C98.1655 38.624 96.3895 38.432 95.0455 38.048C93.7015 37.696 92.7575 37.408 92.2135 37.184L93.2215 32.336C94.0855 32.688 95.1095 33.024 96.2935 33.344C97.5095 33.664 98.8855 33.824 100.422 33.824ZM130.375 18.128C129.895 17.968 129.223 17.808 128.359 17.648C127.527 17.456 126.551 17.36 125.431 17.36C124.791 17.36 124.103 17.424 123.367 17.552C122.663 17.68 122.167 17.792 121.879 17.888V38H116.071V14.096C117.191 13.68 118.583 13.296 120.247 12.944C121.943 12.56 123.815 12.368 125.863 12.368C126.247 12.368 126.695 12.4 127.207 12.464C127.719 12.496 128.231 12.56 128.743 12.656C129.255 12.72 129.751 12.816 130.231 12.944C130.711 13.04 131.095 13.136 131.383 13.232L130.375 18.128ZM158.134 25.424C158.134 27.408 157.846 29.216 157.27 30.848C156.694 32.48 155.878 33.872 154.822 35.024C153.766 36.176 152.486 37.072 150.982 37.712C149.51 38.352 147.878 38.672 146.086 38.672C144.294 38.672 142.662 38.352 141.19 37.712C139.718 37.072 138.454 36.176 137.398 35.024C136.342 33.872 135.51 32.48 134.902 30.848C134.326 29.216 134.038 27.408 134.038 25.424C134.038 23.44 134.326 21.648 134.902 20.048C135.51 18.416 136.342 17.024 137.398 15.872C138.486 14.72 139.766 13.84 141.238 13.232C142.71 12.592 144.326 12.272 146.086 12.272C147.846 12.272 149.462 12.592 150.934 13.232C152.438 13.84 153.718 14.72 154.774 15.872C155.83 17.024 156.646 18.416 157.222 20.048C157.83 21.648 158.134 23.44 158.134 25.424ZM152.182 25.424C152.182 22.928 151.638 20.96 150.55 19.52C149.494 18.048 148.006 17.312 146.086 17.312C144.166 17.312 142.662 18.048 141.574 19.52C140.518 20.96 139.99 22.928 139.99 25.424C139.99 27.952 140.518 29.952 141.574 31.424C142.662 32.896 144.166 33.632 146.086 33.632C148.006 33.632 149.494 32.896 150.55 31.424C151.638 29.952 152.182 27.952 152.182 25.424ZM186.822 25.424C186.822 27.408 186.534 29.216 185.958 30.848C185.382 32.48 184.566 33.872 183.51 35.024C182.454 36.176 181.174 37.072 179.67 37.712C178.198 38.352 176.566 38.672 174.774 38.672C172.982 38.672 171.35 38.352 169.878 37.712C168.406 37.072 167.142 36.176 166.086 35.024C165.03 33.872 164.198 32.48 163.59 30.848C163.014 29.216 162.726 27.408 162.726 25.424C162.726 23.44 163.014 21.648 163.59 20.048C164.198 18.416 165.03 17.024 166.086 15.872C167.174 14.72 168.454 13.84 169.926 13.232C171.398 12.592 173.014 12.272 174.774 12.272C176.534 12.272 178.15 12.592 179.622 13.232C181.126 13.84 182.406 14.72 183.462 15.872C184.518 17.024 185.334 18.416 185.91 20.048C186.518 21.648 186.822 23.44 186.822 25.424ZM180.87 25.424C180.87 22.928 180.326 20.96 179.238 19.52C178.182 18.048 176.694 17.312 174.774 17.312C172.854 17.312 171.35 18.048 170.262 19.52C169.206 20.96 168.678 22.928 168.678 25.424C168.678 27.952 169.206 29.952 170.262 31.424C171.35 32.896 172.854 33.632 174.774 33.632C176.694 33.632 178.182 32.896 179.238 31.424C180.326 29.952 180.87 27.952 180.87 25.424ZM207.109 24.8C207.109 22.176 206.773 20.288 206.101 19.136C205.461 17.952 204.245 17.36 202.453 17.36C201.813 17.36 201.109 17.408 200.341 17.504C199.573 17.6 198.997 17.68 198.613 17.744V38H192.805V13.712C193.925 13.392 195.381 13.088 197.173 12.8C198.997 12.512 200.917 12.368 202.933 12.368C204.661 12.368 206.069 12.592 207.157 13.04C208.277 13.488 209.205 14.08 209.941 14.816C210.293 14.56 210.741 14.288 211.285 14C211.829 13.712 212.437 13.456 213.109 13.232C213.781 12.976 214.485 12.768 215.221 12.608C215.989 12.448 216.757 12.368 217.525 12.368C219.477 12.368 221.077 12.656 222.325 13.232C223.605 13.776 224.597 14.56 225.301 15.584C226.037 16.576 226.533 17.792 226.789 19.232C227.077 20.64 227.221 22.192 227.221 23.888V38H221.413V24.8C221.413 22.176 221.093 20.288 220.453 19.136C219.813 17.952 218.581 17.36 216.757 17.36C215.829 17.36 214.949 17.52 214.117 17.84C213.285 18.128 212.661 18.416 212.245 18.704C212.501 19.504 212.677 20.352 212.773 21.248C212.869 22.144 212.917 23.104 212.917 24.128V38H207.109V24.8Z" fill="#49505E"/>
</svg>
