<svg width="60" height="60" viewBox="0 0 60 60" fill="none" xmlns="http://www.w3.org/2000/svg">
<path d="M47.5 27.5H17.85L26.925 16.6C27.3493 16.0894 27.5535 15.4312 27.4926 14.7701C27.4316 14.1091 27.1105 13.4993 26.6 13.075C26.0895 12.6506 25.4313 12.4465 24.7702 12.5074C24.1091 12.5684 23.4993 12.8894 23.075 13.4L10.575 28.4C10.4909 28.5193 10.4157 28.6446 10.35 28.775C10.35 28.9 10.35 28.975 10.175 29.1C10.0617 29.3866 10.0024 29.6917 10 30C10.0024 30.3082 10.0617 30.6133 10.175 30.9C10.175 31.025 10.175 31.1 10.35 31.225C10.4157 31.3553 10.4909 31.4806 10.575 31.6L23.075 46.6C23.3101 46.8822 23.6044 47.1091 23.9371 47.2647C24.2698 47.4202 24.6327 47.5006 25 47.5C25.5841 47.5011 26.1502 47.2977 26.6 46.925C26.8531 46.7151 27.0624 46.4573 27.2158 46.1665C27.3692 45.8756 27.4637 45.5573 27.4938 45.2299C27.524 44.9024 27.4893 44.5723 27.3917 44.2583C27.2941 43.9442 27.1355 43.6526 26.925 43.4L17.85 32.5H47.5C48.163 32.5 48.7989 32.2366 49.2678 31.7677C49.7366 31.2989 50 30.663 50 30C50 29.3369 49.7366 28.701 49.2678 28.2322C48.7989 27.7633 48.163 27.5 47.5 27.5Z" fill="white" fill-opacity="0.7"/>
</svg>
