<svg width="50" height="50" viewBox="0 0 50 50" fill="none" xmlns="http://www.w3.org/2000/svg">
<path d="M15.4764 34.5238L13.0954 34.4405C10.4716 34.4333 8.3335 32.2214 8.3335 29.5976V15.3929C8.3335 14.1299 8.8352 12.9187 9.72823 12.0257C10.6213 11.1327 11.8325 10.631 13.0954 10.631L36.9049 10.6262C38.1679 10.6262 39.3791 11.1279 40.2721 12.0209C41.1651 12.914 41.6668 14.1252 41.6668 15.3881V29.6786C41.6668 30.9415 41.1651 32.1527 40.2721 33.0457C39.3791 33.9388 38.1679 34.4405 36.9049 34.4405L34.524 34.5286" stroke="#D65555" stroke-linecap="round" stroke-linejoin="round"/>
<path d="M16.6665 14.2857L33.3332 30.9524" stroke="#D65555" stroke-linecap="round" stroke-linejoin="round"/>
<path d="M33.3332 14.2857L16.6665 30.9524" stroke="#D65555" stroke-linecap="round" stroke-linejoin="round"/>
</svg>
