<svg width="50" height="50" viewBox="0 0 50 50" fill="none" xmlns="http://www.w3.org/2000/svg">
<path d="M36.9045 39.2857H10.7141C9.45112 39.2857 8.23991 38.784 7.34688 37.891C6.45385 36.998 5.95215 35.7867 5.95215 34.5238V20.2381C5.95215 18.9752 6.45385 17.764 7.34688 16.8709C8.23991 15.9779 9.45112 15.4762 10.7141 15.4762H13.095M17.9521 13.0952L20.426 10.7143H29.7593L34.3307 15.4762H39.2855C40.5484 15.4762 41.7596 15.9779 42.6527 16.8709C43.5457 17.764 44.0474 18.9752 44.0474 20.2381V34.5238C44.0474 35.719 43.6069 36.8119 42.8807 37.6476L17.9521 13.0952Z" stroke="#D65555" stroke-linecap="round" stroke-linejoin="round"/>
<path d="M8.33301 10.7143L41.6663 44.0476" stroke="#D65555" stroke-linecap="round" stroke-linejoin="round"/>
<path d="M32.1424 27.381C32.1424 25.4866 31.3899 23.6697 30.0503 22.3302C28.7108 20.9906 26.894 20.2381 24.9995 20.2381M19.7757 22.5095C18.5201 23.8556 17.8325 25.6345 17.8566 27.4752C17.8806 29.3158 18.6143 31.0761 19.9047 32.389C21.1952 33.7018 22.9426 34.4657 24.7826 34.5215C26.6225 34.5772 28.413 33.9204 29.7805 32.6881L19.7757 22.5095Z" stroke="#D65555" stroke-linecap="round" stroke-linejoin="round"/>
</svg>
