<svg width="50" height="50" viewBox="0 0 50 50" fill="none" xmlns="http://www.w3.org/2000/svg">
<path d="M18.3238 10.8214C18.8235 9.51064 19.6979 8.37593 20.8381 7.55877C21.9783 6.74161 23.3339 6.27815 24.7357 6.22619L25 6.21667C25.9253 6.18242 26.8481 6.3351 27.7131 6.6656C28.5781 6.99609 29.3676 7.4976 30.0344 8.14016C30.7012 8.78271 31.2316 9.55312 31.5938 10.4053C31.9561 11.2575 32.1428 12.174 32.1428 13.1V22.619C32.1428 23.5429 31.9666 24.4262 31.6476 25.2357M36.9047 22.619C36.9047 24.8048 36.3166 26.8524 35.2857 28.6143L36.9047 22.619ZM31.8952 32.3238C30.1142 33.5893 28.0192 34.3402 25.8398 34.4943C23.6605 34.6485 21.4807 34.1999 19.5393 33.1977C17.5978 32.1955 15.9697 30.6784 14.833 28.8125C13.6964 26.9466 13.0952 24.8039 13.0952 22.619L31.8952 32.3238Z" stroke="#D65555" stroke-linecap="round" stroke-linejoin="round"/>
<path d="M28.4693 28.8643C27.3819 29.4684 26.1556 29.7781 24.9117 29.7627C23.6678 29.7473 22.4495 29.4073 21.3774 28.7763C20.3053 28.1454 19.4166 27.2454 18.7992 26.1654C18.1818 25.0855 17.8572 23.863 17.8574 22.619V17.8571" stroke="#D65555" stroke-linecap="round" stroke-linejoin="round"/>
<path d="M8.3335 8.33334L41.6668 41.6667" stroke="#D65555" stroke-linecap="round" stroke-linejoin="round"/>
<path d="M25 34.5238V44.0476" stroke="#D65555" stroke-linecap="round" stroke-linejoin="round"/>
</svg>
