<svg width="50" height="50" viewBox="0 0 50 50" fill="none" xmlns="http://www.w3.org/2000/svg">
<path fill-rule="evenodd" clip-rule="evenodd" d="M24.7379 6.22619L24.9998 6.21667C25.9252 6.18242 26.8479 6.3351 27.7129 6.6656C28.578 6.99609 29.3675 7.4976 30.0342 8.14016C30.701 8.78271 31.2314 9.55312 31.5937 10.4053C31.9559 11.2575 32.1426 12.174 32.1426 13.1V22.619C32.1426 24.5134 31.3901 26.3303 30.0506 27.6698C28.711 29.0094 26.8942 29.7619 24.9998 29.7619C23.1054 29.7619 21.2886 29.0094 19.949 27.6698C18.6095 26.3303 17.8569 24.5134 17.8569 22.619V13.3643C17.8569 11.5152 18.574 9.7382 19.8572 8.40696C21.1405 7.07571 22.8901 6.29399 24.7379 6.22619V6.22619Z" stroke="white" stroke-linecap="round" stroke-linejoin="round"/>
<path d="M36.9047 22.619C36.9007 25.729 35.6799 28.7139 33.5034 30.9352C31.3269 33.1566 28.3676 34.4381 25.2584 34.5056C22.1492 34.5731 19.137 33.4213 16.8662 31.2965C14.5953 29.1716 13.2461 26.2425 13.1071 23.1357L13.0952 22.619" stroke="white" stroke-linecap="round" stroke-linejoin="round"/>
<path d="M25 34.5238V44.0476" stroke="white" stroke-linecap="round" stroke-linejoin="round"/>
</svg>
