<svg width="673" height="480" viewBox="0 0 673 480" fill="none" xmlns="http://www.w3.org/2000/svg">
<path fill-rule="evenodd" clip-rule="evenodd" d="M636.916 350.842C588.249 447.348 377.648 530.417 168.368 441.226C47.9929 389.925 2.4585 266.305 0.0742133 209.126C-1.80078 164.16 32.2895 116.219 52.8696 95.6206C96.6153 51.8369 330.082 -2.69719 383.408 0.10363C458.69 -1.97339 505.656 62.274 564.911 65.3376C607.044 67.5159 733.209 159.894 636.916 350.842Z" fill="#556CD6"/>
<path fill-rule="evenodd" clip-rule="evenodd" d="M343.558 202.165C343.314 205.753 343.613 209.376 344.443 212.878C344.793 214.354 347.047 214.627 348.218 213.641C349.39 212.655 349.702 211.015 349.828 209.504C350.015 207.269 349.955 205.015 349.65 202.794C349.492 201.646 349.251 200.462 348.546 199.533C347.842 198.604 346.555 198.009 345.455 198.424C344.054 198.952 343.659 200.693 343.558 202.165Z" fill="white"/>
<path fill-rule="evenodd" clip-rule="evenodd" d="M166.325 114.118C179.187 107.855 194.547 106.733 208.209 111.059C211.641 104.573 216.698 98.926 222.806 94.7567C223.984 93.9524 225.671 93.226 226.731 94.1761C226.304 100.841 225.876 107.525 226.277 114.191C226.589 119.38 227.402 124.54 227.476 129.737C227.691 144.759 221.702 159.309 213.555 172.018C233.114 184.953 247.86 204.771 254.478 227.017C251.711 228.422 179.281 230.897 140.104 227.817C139.196 228.422 138.347 226.961 138.244 225.888C137.195 215.034 136.607 203.983 138.897 193.315C141.187 182.647 146.66 172.279 155.702 165.968C147.31 148.004 150.574 125.965 140.337 108.95C139.729 107.94 139.217 106.364 140.282 105.832C140.676 105.635 141.148 105.696 141.584 105.769C148.722 106.96 155.524 110.046 161.076 114.615C162.508 115.794 164.651 114.933 166.325 114.118Z" fill="white"/>
<path fill-rule="evenodd" clip-rule="evenodd" d="M443.873 225.918C443.824 225.918 451.31 214.881 455.9 209.747C460.092 205.059 462.549 198.902 462.719 192.662C448.226 192.099 433.805 189.744 419.903 185.671C417.776 185.048 415.582 184.34 413.969 182.84C410.203 179.338 411.135 173.23 413.077 168.504C415.434 162.768 418.859 157.458 423.131 152.916C424.592 151.364 426.176 149.864 427.133 147.97C428.09 146.075 428.291 143.638 427 141.946C424.825 139.094 424.367 135.349 424.14 131.792C423.914 128.234 423.81 124.535 422.167 121.358C420.524 118.181 416.792 115.711 413.326 116.753C412.485 115.491 414.146 114.034 415.608 113.577C421.13 111.852 427.316 113.362 432.156 116.494C436.997 119.625 440.67 124.216 443.824 128.995C445.056 130.861 447.139 133.053 449.147 132.028C462.859 125.026 479.593 124.006 494.08 129.288C496.094 130.022 499.189 130.336 499.599 128.264C501.644 117.941 510.405 109.223 520.877 107.09C516.761 109.992 516.512 115.896 517.336 120.81C518.16 125.724 519.611 130.958 517.557 135.51C515.898 139.184 520.075 142.638 523.458 144.895C528.566 148.304 533.134 152.494 536.946 157.268C540.718 161.993 543.863 168.064 542.14 173.826C539.884 181.37 530.856 184.356 523.088 186.218C515.504 188.036 507.92 189.854 500.337 191.672C500.197 198.947 502.838 206.241 507.622 211.792C511.459 216.245 517.035 220.834 515.815 226.546C518.37 230.53 494.389 230.321 443.873 225.918Z" fill="white"/>
<path fill-rule="evenodd" clip-rule="evenodd" d="M462.074 324.298C464.687 325.888 467.585 327.791 470.572 327.083C477.489 325.442 484.896 325.854 491.58 328.251C494.394 329.26 496.945 326.398 498.709 324.017C503.828 317.107 510.522 311.332 518.155 307.24C523.418 315.736 518.086 327.492 522.663 336.365C529.745 350.096 527.864 367.831 518.052 379.829C528.349 389.722 535.351 402.88 537.746 416.84C536.521 417.195 473.801 424.844 439.36 415.666C438.979 405.827 442.587 395.893 449.22 388.517C439.373 377.114 434.569 361.64 436.26 346.774C436.437 345.226 436.663 343.576 435.962 342.18C432.288 334.865 429.757 326.996 428.486 318.933C428.41 318.452 428.347 317.924 428.606 317.508C428.949 316.956 429.699 316.836 430.356 316.783C441.38 315.9 452.669 318.574 462.074 324.298Z" fill="white"/>
<path fill-rule="evenodd" clip-rule="evenodd" d="M163.775 418.177C165.029 410.8 166.282 403.422 167.535 396.044C167.86 394.13 167.815 391.565 165.937 390.965C160.082 389.094 155.135 384.644 152.72 379.075C151.959 377.321 149.611 376.696 147.744 377.213C145.877 377.729 144.387 379.08 142.975 380.387C143.78 377.289 146.674 374.829 149.907 374.493C151.005 372.674 149.433 370.162 147.351 369.633C145.268 369.105 143.075 370.028 141.336 371.273C141.2 369.301 143.64 368.337 145.488 367.563C147.336 366.788 149.141 364.343 147.565 363.117C146.879 362.583 145.902 362.678 145.035 362.8C142.529 363.153 140.023 363.505 137.517 363.858C137.802 361.874 140.424 361.364 142.455 361.211C144.487 361.057 147.111 360.084 146.885 358.093C146.014 350.418 147.903 342.636 151.057 335.564C153.671 329.706 145.981 323.838 146.485 317.46C146.525 316.966 146.644 316.425 147.049 316.131C147.533 315.779 148.21 315.919 148.785 316.094C152.744 317.295 156.415 319.404 159.423 322.206C160.883 323.566 163.234 322.639 165.071 321.833C171.844 318.861 179.783 318.553 186.774 320.992C193.086 323.194 198.685 312.571 204.941 314.925C203.344 320.092 201.747 325.259 200.151 330.426C199.71 331.852 199.293 333.489 200.094 334.754C202.792 339.015 204.428 343.922 204.82 348.927C205.096 352.453 205.79 357.216 209.375 357.492C207.814 358.167 206.092 359.009 205.551 360.6C205.011 362.191 206.858 364.29 208.258 363.33C209.465 362.502 211.416 363.193 211.809 364.588C209.741 364.389 207.496 364.611 205.879 365.895C204.262 367.179 203.627 369.776 204.998 371.313C208.005 370.095 211.558 370.254 214.44 371.738C212.722 372.98 210.363 372.613 208.235 372.488C206.107 372.363 203.515 372.846 202.762 374.807C200.249 381.352 194.073 386.403 187.07 387.64C183.62 388.249 183.067 392.837 183.351 396.272C183.948 403.478 184.545 410.684 185.141 417.89C183.912 419.037 169.647 420.627 163.775 418.177Z" fill="white"/>
<path fill-rule="evenodd" clip-rule="evenodd" d="M68.3122 387.228C68.0677 390.816 68.367 394.439 69.1972 397.941C69.5473 399.418 71.801 399.691 72.9723 398.704C74.1437 397.718 74.4559 396.078 74.582 394.567C74.7686 392.333 74.7087 390.079 74.404 387.857C74.2465 386.709 74.0045 385.525 73.3004 384.596C72.5963 383.667 71.3091 383.073 70.2091 383.487C68.8081 384.016 68.4125 385.756 68.3122 387.228Z" fill="white"/>
<path fill-rule="evenodd" clip-rule="evenodd" d="M351.621 407.006C352.058 407.247 351.995 407.939 351.627 408.273C351.258 408.606 350.725 408.678 350.227 408.735C348.49 408.932 346.58 409.089 345.141 408.113C345.872 407.6 346.604 407.087 347.336 406.574C346.876 405.925 345.973 405.794 345.175 405.698C344.376 405.603 343.468 405.414 343.079 404.722C342.69 404.03 343.538 402.929 344.176 403.41C346.149 404.894 349.048 405.063 351.184 403.818C352.59 402.999 353.921 401.577 355.526 401.884C354.404 404.031 352.183 405.587 349.753 405.928C349.809 406.762 350.853 407.364 351.621 407.006Z" fill="#00160A"/>
<path fill-rule="evenodd" clip-rule="evenodd" d="M72.7744 405.887C71.0362 406.086 69.1234 406.244 67.684 405.266C68.4211 404.751 69.1583 404.236 69.8954 403.722C69.3876 403.09 68.4764 402.982 67.6652 402.872C66.8541 402.763 65.9312 402.517 65.5952 401.783C65.2593 401.049 66.2641 400.022 66.8373 400.597C68.246 402.01 70.5862 402.099 72.4896 401.458C74.393 400.816 76.0174 399.58 77.7529 398.578C77.7973 401.103 74.7901 402.433 72.3149 403.108C72.3724 403.931 73.4087 404.52 74.1631 404.159C74.601 404.397 74.5411 405.09 74.1732 405.424C73.8052 405.758 73.2718 405.831 72.7744 405.887Z" fill="#00160A"/>
<path fill-rule="evenodd" clip-rule="evenodd" d="M68.9773 400.901C66.2581 399.904 65.7105 396.424 65.5987 393.572C65.5248 391.686 65.4509 389.8 65.377 387.914C65.3356 386.858 65.2972 385.777 65.6144 384.768C66.1435 383.083 67.7156 381.761 69.4905 381.51C71.2655 381.258 73.1531 382.089 74.1448 383.558C74.7116 384.398 74.9879 385.392 75.2046 386.377C75.6666 388.477 75.8974 390.627 75.8916 392.775C75.886 394.858 75.6253 397.034 74.4498 398.766C73.2743 400.499 70.9618 401.628 68.9773 400.901H68.9773ZM71.4137 399.332C72.8209 398.895 73.3381 397.225 73.5376 395.787C73.8839 393.292 73.913 390.754 73.6241 388.252C73.4786 386.992 73.2288 385.685 72.4407 384.682C71.6526 383.678 70.1777 383.092 69.028 383.666C67.6022 384.378 67.4382 386.281 67.4649 387.853C67.4997 389.902 67.5344 391.951 67.5692 393.999C67.5909 395.274 67.6256 396.601 68.226 397.731C68.8264 398.861 70.1774 399.715 71.4137 399.332Z" fill="#00160A"/>
<path fill-rule="evenodd" clip-rule="evenodd" d="M345.029 383.918C346.962 382.703 349.7 383.575 351.156 385.318C352.612 387.061 353.048 389.414 353.182 391.666C353.26 392.97 353.254 394.28 353.164 395.584C353.038 397.415 352.721 399.301 351.689 400.83C350.657 402.359 348.753 403.442 346.929 403.049C345.363 402.711 344.179 401.369 343.612 399.893C343.045 398.418 342.99 396.807 342.942 395.23C342.896 393.729 342.85 392.228 342.804 390.727C342.728 388.227 342.886 385.264 345.029 383.918ZM347.327 401.324C348.382 401.58 349.499 400.945 350.099 400.053C350.698 399.162 350.883 398.067 350.996 397.005C351.245 394.665 351.216 392.297 350.909 389.965C350.752 388.77 350.501 387.534 349.753 386.58C349.005 385.626 347.627 385.051 346.514 385.556C345.179 386.162 344.878 387.868 344.813 389.313C344.689 392.049 344.779 394.794 345.083 397.516C345.256 399.074 345.78 400.948 347.327 401.324Z" fill="#00160A"/>
<path fill-rule="evenodd" clip-rule="evenodd" d="M344.792 389.116C344.548 392.704 344.847 396.327 345.677 399.829C346.027 401.306 348.281 401.578 349.452 400.592C350.624 399.606 350.936 397.966 351.062 396.455C351.249 394.221 351.189 391.967 350.884 389.745C350.726 388.597 350.484 387.413 349.78 386.484C349.076 385.555 347.789 384.961 346.689 385.375C345.288 385.904 344.893 387.644 344.792 389.116Z" fill="white"/>
<path fill-rule="evenodd" clip-rule="evenodd" d="M340.924 216.401C341.123 215.757 341.968 215.522 342.634 215.676C343.301 215.83 343.868 216.249 344.497 216.514C346.846 217.503 349.536 216.216 351.532 214.648C352.203 214.122 353.28 213.593 353.786 214.273C352.583 216.283 350.439 217.723 348.097 218.093C348.169 218.918 349.195 219.507 349.961 219.162C350.393 219.404 350.329 220.091 349.962 220.421C349.596 220.752 349.066 220.824 348.572 220.88C346.848 221.077 344.96 221.238 343.513 220.295C344.285 219.698 345.057 219.101 345.829 218.505C344.038 218.267 342.319 217.53 340.924 216.401Z" fill="#00160A"/>
<path fill-rule="evenodd" clip-rule="evenodd" d="M430.356 316.783C441.38 315.9 452.669 318.574 462.074 324.298C464.687 325.888 467.585 327.791 470.572 327.083C477.489 325.442 484.896 325.854 491.58 328.251C494.394 329.26 496.945 326.398 498.709 324.017C503.828 317.107 510.522 311.332 518.155 307.24C523.418 315.736 518.086 327.492 522.663 336.365C529.745 350.096 527.864 367.831 518.052 379.829C528.349 389.722 535.351 402.88 537.746 416.84C536.521 417.194 535.718 415.623 535.422 414.402C532.78 403.494 527.533 393.204 520.223 384.597C518.511 382.582 515.713 380.493 513.456 381.895C495.515 393.035 472.771 396.399 452.291 390.942C448.912 390.042 446.513 394.077 445.429 397.35C443.406 403.455 441.383 409.561 439.36 415.666C438.979 405.827 442.587 395.893 449.22 388.517C439.373 377.114 434.569 361.64 436.26 346.774C436.437 345.226 436.663 343.576 435.962 342.18C432.288 334.865 429.757 326.996 428.486 318.933C428.41 318.452 428.347 317.924 428.606 317.508C428.949 316.956 429.699 316.836 430.356 316.783ZM475.069 336.329C471.174 339.844 467.963 344.089 465.658 348.768C464.296 344.282 465.034 339.223 467.624 335.294C464.122 336.582 460.88 338.549 458.138 341.048C458.141 337.311 460.072 333.624 463.165 331.453C461.826 331.491 460.487 331.53 459.148 331.568C460.543 329.867 462.508 328.626 464.661 328.085C454.798 321.168 442.433 317.779 430.354 318.681C432.484 331.062 437.569 342.941 445.085 353.093C441.874 351.801 439.25 349.164 438.008 345.979C436.63 358.741 439.934 371.942 447.176 382.618C448.524 384.606 450.032 386.536 451.989 387.953C455.235 390.303 459.394 391.024 463.409 391.384C479.465 392.826 495.934 389.47 510.086 381.875C512.806 380.415 515.471 378.78 517.627 376.592C520.48 373.696 522.312 369.953 523.489 366.091C526.58 355.959 525.269 344.604 519.946 335.411C518.985 338.231 518.024 341.051 517.063 343.871C516.657 345.061 514.857 346.303 514.513 345.095C519.287 333.971 520.311 321.328 517.387 309.602C506.486 316.717 497.351 326.429 490.987 337.672C490.72 335.053 491.404 332.35 492.889 330.16C486.006 335.344 480.041 341.703 475.341 348.866C474.487 344.748 474.394 340.479 475.069 336.329Z" fill="#00160A"/>
<path fill-rule="evenodd" clip-rule="evenodd" d="M62.0761 218.512C63.0053 218.672 64.0083 218.322 64.6267 217.621C62.7495 217.292 60.9528 216.527 59.425 215.405C60.0337 214.38 61.5929 214.996 62.7169 215.428C65.4394 216.475 68.8386 215.4 70.4289 212.988C70.8567 212.339 72.0026 213.082 71.8769 213.845C71.7512 214.609 70.9859 215.081 70.2963 215.453C68.9786 216.163 67.661 216.872 66.3433 217.582C67.4262 217.679 68.4687 218.165 69.2289 218.93C67.7926 220.08 65.7695 220.103 63.9175 220.07C63.4146 220.061 62.8832 220.044 62.4576 219.781C62.032 219.517 61.7823 218.913 62.0761 218.512Z" fill="#00160A"/>
<path fill-rule="evenodd" clip-rule="evenodd" d="M342.373 198.419C343.864 196.125 347.618 195.726 349.573 197.654C350.695 198.76 351.164 200.346 351.46 201.881C351.862 203.96 352.027 206.083 351.949 208.198C351.878 210.147 351.571 212.169 350.454 213.78C349.336 215.392 347.223 216.467 345.329 215.886C342.495 215.016 341.854 211.421 341.714 208.504C341.64 206.962 341.566 205.421 341.492 203.879C341.402 202.007 341.347 199.998 342.373 198.419ZM343.558 202.165C343.314 205.753 343.613 209.376 344.443 212.878C344.793 214.354 347.047 214.627 348.218 213.641C349.39 212.655 349.702 211.015 349.828 209.504C350.015 207.269 349.955 205.015 349.65 202.794C349.492 201.646 349.251 200.462 348.546 199.533C347.842 198.604 346.555 198.009 345.455 198.424C344.054 198.952 343.659 200.693 343.558 202.165Z" fill="#00160A"/>
<path fill-rule="evenodd" clip-rule="evenodd" d="M62.5522 200.316C62.3077 203.904 62.607 207.527 63.4372 211.029C63.7873 212.506 66.041 212.779 67.2124 211.792C68.3837 210.806 68.6959 209.166 68.8221 207.655C69.0086 205.421 68.9488 203.167 68.644 200.945C68.4865 199.797 68.2445 198.613 67.5404 197.684C66.8363 196.755 65.5491 196.161 64.4491 196.575C63.0481 197.104 62.6526 198.844 62.5522 200.316Z" fill="white"/>
<path fill-rule="evenodd" clip-rule="evenodd" d="M63.1109 214.631C61.0559 213.621 60.4928 211.036 60.2676 208.788C60.048 206.596 59.9222 204.395 59.8907 202.192C59.8697 200.721 59.9068 199.183 60.6096 197.883C61.3738 196.471 62.925 195.502 64.5505 195.422C66.1759 195.343 67.8171 196.156 68.7198 197.488C69.3122 198.361 69.5861 199.403 69.7942 200.434C70.2228 202.555 70.4142 204.724 70.3639 206.886C70.3151 208.988 69.9983 211.187 68.7353 212.883C67.4723 214.579 65.0234 215.57 63.1109 214.631ZM62.5623 210.866C62.7118 211.565 62.9186 212.296 63.4465 212.787C64.4827 213.749 66.3139 213.27 67.1891 212.163C68.0643 211.056 68.2246 209.571 68.2822 208.17C68.3674 206.102 68.301 204.029 68.084 201.971C67.9608 200.803 67.7735 199.597 67.1215 198.614C66.4695 197.631 65.2303 196.931 64.0788 197.241C62.2573 197.731 61.9059 200.083 61.9127 201.94C61.9236 204.928 61.9371 207.941 62.5623 210.866Z" fill="#00160A"/>
<path fill-rule="evenodd" clip-rule="evenodd" d="M443.873 225.918C444.334 219.096 451.31 214.881 455.9 209.747C460.092 205.059 462.549 198.902 462.719 192.662C448.226 192.099 433.805 189.744 419.903 185.671C417.776 185.048 415.582 184.34 413.969 182.84C410.203 179.338 411.135 173.23 413.077 168.504C415.434 162.768 418.859 157.458 423.131 152.916C424.592 151.364 426.176 149.864 427.133 147.97C428.09 146.075 428.291 143.638 427 141.946C424.825 139.094 424.367 135.349 424.14 131.792C423.914 128.234 423.81 124.535 422.167 121.358C420.524 118.181 416.792 115.711 413.326 116.753C412.485 115.491 414.146 114.034 415.608 113.577C421.13 111.852 427.316 113.362 432.156 116.494C436.997 119.625 440.67 124.216 443.824 128.995C445.056 130.861 447.139 133.053 449.147 132.028C462.859 125.026 479.593 124.006 494.08 129.288C496.094 130.022 499.189 130.336 499.599 128.264C501.644 117.941 510.405 109.223 520.877 107.09C516.761 109.992 516.512 115.896 517.336 120.81C518.16 125.724 519.611 130.958 517.557 135.51C515.898 139.184 520.075 142.638 523.458 144.895C528.566 148.304 533.134 152.494 536.946 157.268C540.718 161.993 543.863 168.064 542.14 173.826C539.884 181.37 530.856 184.356 523.088 186.218C515.504 188.036 507.92 189.854 500.337 191.672C500.197 198.947 502.838 206.241 507.622 211.792C511.459 216.245 517.035 220.834 515.815 226.546C513.22 220.473 508.352 215.672 504.442 210.323C500.531 204.974 497.449 198.28 499.217 191.926C495.756 190.709 492.122 193.142 489.504 195.68C486.887 198.219 484.125 201.211 480.454 201.414C474.408 201.748 470.632 194.493 464.722 193.195C464.585 197.086 463.55 200.943 461.717 204.394C459.767 208.063 456.966 211.216 454.192 214.331C450.752 218.193 447.313 222.055 443.873 225.918ZM449.507 133.635C445.831 135.394 451.525 142.263 448.234 144.649C446.542 135.618 441.744 127.179 434.808 121.031C430.303 117.038 424.326 113.892 418.367 115.002C421.851 116.347 423.972 119.908 424.884 123.478C425.796 127.048 425.764 130.784 426.399 134.412C427.517 140.798 430.765 146.805 435.524 151.287C433.357 151.259 431.257 149.949 430.307 148.033C423.635 153.931 418.274 161.256 414.704 169.349C413.295 172.542 412.196 176.349 413.939 179.378C415.409 181.933 418.453 183.12 421.293 184.025C431.513 187.279 442.144 189.283 452.863 189.976C459.268 190.389 466.183 190.495 471.303 194.302C473.163 195.685 474.691 197.505 476.718 198.638C478.745 199.772 481.606 200.003 483.184 198.315C489.346 191.726 498.716 189.171 507.668 187.55C516.621 185.929 525.97 184.845 533.775 180.239C536.705 178.509 539.482 176.116 540.429 172.888C541.717 168.499 539.313 163.918 536.596 160.213C531.117 152.741 523.989 146.444 515.848 141.887C515.492 143.273 514.621 144.525 513.436 145.352C513.053 143.783 513.751 142.182 514.309 140.665C517.762 131.287 516.189 120.931 514.573 111.084C503.977 117.096 498.472 130.619 501.922 142.161C499.901 142.53 498.946 139.746 499.143 137.734C499.339 135.723 499.502 133.095 497.607 132.314C482.36 126.03 464.374 126.524 449.507 133.635Z" fill="#00160A"/>
<path fill-rule="evenodd" clip-rule="evenodd" d="M168.758 347.981C169.823 349.749 169.94 352.035 169.063 353.899C168.597 354.888 167.023 354.854 166.233 354.09C165.442 353.326 165.235 352.168 165.082 351.089C164.943 350.112 164.823 349.082 165.201 348.169C165.58 347.256 166.639 346.538 167.582 346.873C168.104 347.058 168.476 347.512 168.758 347.981Z" fill="#00160A"/>
<path fill-rule="evenodd" clip-rule="evenodd" d="M185.141 417.89C181.77 409.475 180.644 400.201 181.907 391.242C178.731 394.665 172.869 395.249 169.059 392.522C169.97 401.335 168.102 410.407 163.775 418.177C165.029 410.8 166.282 403.422 167.535 396.044C167.86 394.13 167.815 391.565 165.937 390.965C160.082 389.094 155.135 384.644 152.72 379.075C151.959 377.321 149.611 376.696 147.744 377.213C145.877 377.729 144.387 379.08 142.975 380.387C143.78 377.289 146.674 374.829 149.907 374.493C151.005 372.674 149.433 370.162 147.351 369.633C145.268 369.105 143.075 370.028 141.336 371.273C141.2 369.301 143.64 368.337 145.488 367.563C147.336 366.788 149.141 364.343 147.565 363.117C146.879 362.583 145.902 362.678 145.035 362.8C142.529 363.153 140.023 363.505 137.517 363.858C137.802 361.874 140.424 361.364 142.455 361.211C144.487 361.057 147.111 360.084 146.885 358.093C146.014 350.418 147.903 342.636 151.057 335.564C153.671 329.706 145.981 323.838 146.485 317.46C146.525 316.966 146.644 316.425 147.049 316.131C147.533 315.779 148.21 315.919 148.785 316.094C152.744 317.295 156.415 319.404 159.423 322.206C160.883 323.566 163.234 322.639 165.071 321.833C171.844 318.861 179.783 318.553 186.774 320.992C193.086 323.194 198.685 312.571 204.941 314.925C203.344 320.092 201.747 325.259 200.151 330.426C199.71 331.852 199.293 333.489 200.094 334.754C202.792 339.015 204.428 343.922 204.82 348.927C205.096 352.453 205.79 357.216 209.375 357.492C207.814 358.167 206.092 359.009 205.551 360.6C205.011 362.191 206.858 364.29 208.258 363.33C209.465 362.502 211.416 363.193 211.809 364.588C209.741 364.389 207.496 364.611 205.879 365.895C204.262 367.179 203.627 369.776 204.998 371.313C208.005 370.095 211.558 370.254 214.44 371.738C212.722 372.98 210.363 372.613 208.235 372.488C206.107 372.363 203.515 372.846 202.762 374.807C200.249 381.352 194.073 386.403 187.07 387.64C183.62 388.249 183.067 392.837 183.351 396.272C183.948 403.478 184.545 410.684 185.141 417.89ZM187.926 366.097C186.821 367.089 184.916 368.123 184.098 366.891C188.824 361.904 195.306 358.556 202.164 357.558C203.563 357.354 203.873 355.517 203.773 354.13C203.281 347.303 201.289 340.585 197.973 334.568C197.476 335.833 195.901 336.576 194.587 336.165C198.508 330.373 201.087 323.709 202.075 316.819C195.799 319.377 190.223 323.574 186.074 328.864C185.496 326.834 186.42 324.482 188.235 323.362C179.957 320.375 170.443 320.873 162.535 324.709C162.741 325.971 162.947 327.233 163.153 328.495C159.274 323.875 154.218 320.216 148.578 317.949C150.411 324.682 153.084 331.193 156.518 337.291C155.027 337.607 153.408 336.337 153.391 334.837C150.275 341.503 148.562 348.799 148.391 356.133C148.342 358.242 149.206 361.094 151.339 360.877C157.162 360.284 163.207 362.275 167.491 366.198C163.515 365.069 159.538 363.939 155.561 362.809C153.85 362.323 151.888 361.868 150.388 362.813C148.888 363.757 149.066 366.687 150.847 366.721C155.511 365.384 160.781 366.282 164.716 369.084C160.111 368.076 155.294 368.012 150.662 368.897C149.507 371.638 153.431 373.784 156.448 373.77C159.466 373.755 163.245 373.435 164.71 376.03C161.01 375.84 157.31 375.651 153.61 375.462C154.626 381.944 160.293 387.45 166.897 388.371C168.157 388.546 168.984 389.7 169.922 390.546C173.653 393.911 180.818 391.625 181.829 386.747C190.423 386.488 198.608 380.867 201.815 373.023C197.456 373.632 193.097 374.24 188.737 374.849C189.758 372.914 192.182 372.171 194.386 371.945C196.591 371.719 198.922 371.795 200.876 370.767C202.831 369.739 204.101 367.029 202.702 365.339C197.255 367.221 191.808 369.104 186.362 370.986C188.174 368.33 191.032 366.383 194.197 365.647C196.404 365.134 198.75 365.185 200.862 364.372C202.974 363.56 204.86 361.42 204.262 359.269C198.243 359.647 192.38 362.097 187.926 366.097Z" fill="#00160A"/>
<path fill-rule="evenodd" clip-rule="evenodd" d="M182.467 343.893C181.736 343.856 180.852 343.716 180.582 343.047C182.362 341.064 186.22 341.695 187.251 344.138C185.657 344.057 184.062 343.975 182.467 343.893Z" fill="#00160A"/>
<path fill-rule="evenodd" clip-rule="evenodd" d="M179.734 381.074C180.304 381.751 180.186 382.815 179.649 383.518C179.113 384.221 178.254 384.618 177.392 384.851C176.136 385.19 174.65 385.185 173.694 384.315C172.311 383.057 172.977 380.496 174.677 379.697C176.377 378.899 178.531 379.648 179.734 381.074ZM174.776 381.462C174.344 382.253 175.261 383.226 176.174 383.228C177.087 383.231 177.874 382.633 178.581 382.065C177.651 381.067 175.995 380.818 174.804 381.498L174.776 381.462Z" fill="#00160A"/>
<path fill-rule="evenodd" clip-rule="evenodd" d="M184.511 353.976C183.388 354.532 181.969 353.64 181.545 352.476C181.121 351.312 181.405 350.025 181.732 348.831C181.918 348.15 182.168 347.406 182.792 347.058C183.628 346.591 184.747 347.125 185.233 347.941C185.719 348.757 185.743 349.752 185.753 350.698C185.767 351.931 185.63 353.421 184.511 353.976Z" fill="#00160A"/>
<path fill-rule="evenodd" clip-rule="evenodd" d="M164.31 381.129C167.685 381.556 171.243 379.949 173.112 377.153C174.982 374.357 175.072 370.508 173.335 367.631C172.416 366.108 171.019 364.212 172.131 362.82C172.696 362.113 173.699 361.932 174.612 361.884C175.61 361.831 176.67 361.892 177.504 362.434C178.337 362.976 178.823 364.137 178.316 364.983C176.314 368.327 176.62 372.863 179.054 375.918C181.488 378.972 185.895 380.348 189.675 379.236C190.367 379.032 191.5 379.101 191.364 379.798C191.331 379.967 191.211 380.106 191.09 380.229C188.954 382.399 185.251 382.046 182.501 380.703C179.944 379.456 177.75 377.498 176.24 375.117C174.888 377.383 173.494 379.7 171.425 381.362C169.356 383.023 166.438 383.92 163.958 382.941C163.279 382.673 162.574 381.869 163.065 381.334C163.359 381.014 163.874 381.073 164.31 381.129Z" fill="#00160A"/>
<path fill-rule="evenodd" clip-rule="evenodd" d="M170.29 343.082C170.46 343.605 169.717 343.923 169.162 343.982C168.109 344.093 167.057 344.205 166.004 344.317C165.191 344.403 164.024 344.169 164.114 343.37C165.56 341.871 168.112 341.558 169.889 342.662C170.058 342.767 170.23 342.895 170.29 343.082Z" fill="#00160A"/>
<path fill-rule="evenodd" clip-rule="evenodd" d="M454.276 401.107C454.066 399.141 454.113 396.83 455.698 395.614C457.091 394.545 459.067 394.798 460.806 395.104C463.567 395.589 466.327 396.075 469.088 396.56C471.245 396.94 473.554 397.303 475.559 396.435C477.16 395.742 478.993 396.484 480.742 396.499C482.169 396.511 483.547 396.031 484.89 395.557C489.01 394.103 493.131 392.648 497.252 391.194C498.009 390.927 498.852 390.659 499.597 390.958C500.729 391.412 500.983 392.849 501.07 394.049C501.17 395.415 501.27 396.781 501.37 398.148C501.492 399.817 501.603 401.56 500.937 403.1C500.271 404.641 498.567 405.886 496.919 405.468C492.664 404.389 488.336 403.591 483.973 403.079C483.095 402.976 481.951 403.037 481.663 403.859C481 405.745 478.258 405.443 476.257 405.11C471.67 404.348 466.782 405.537 463.084 408.313C462.094 409.056 461.168 409.917 460.026 410.405C458.883 410.893 457.421 410.918 456.515 410.078C455.896 409.505 455.651 408.652 455.453 407.839C454.912 405.623 454.518 403.373 454.276 401.107ZM474.975 399.537C469.407 398.498 463.812 397.6 458.197 396.844C457.311 396.725 456.486 397.444 456.194 398.275C455.902 399.106 456.015 400.016 456.144 400.886C456.426 402.797 456.768 404.698 457.169 406.588C457.295 407.179 457.44 407.798 457.849 408.25C458.257 408.701 459.017 408.905 459.494 408.524C462.537 406.092 466.141 404.342 469.954 403.444C471.101 403.174 472.292 402.971 473.306 402.379C474.32 401.787 475.135 400.686 474.975 399.537ZM490.823 395.306C487.859 396.109 484.711 397.024 482.718 399.326C482.112 400.025 481.988 401.514 482.922 401.479C487.579 401.306 492.268 402.02 496.654 403.571C497.585 403.901 498.637 403.244 499.078 402.372C499.518 401.5 499.504 400.481 499.48 399.508C499.435 397.673 499.389 395.838 499.344 394.004C499.337 393.709 499.294 393.357 499.026 393.227C498.847 393.14 498.633 393.191 498.44 393.243C495.901 393.931 493.362 394.619 490.823 395.306ZM476.341 402.115C476.47 402.547 476.657 402.981 477.004 403.274C477.854 403.994 479.284 403.478 479.853 402.528C480.423 401.578 480.366 400.398 480.236 399.303C480.08 397.99 478.086 397.561 477.075 398.433C476.065 399.305 475.961 400.847 476.341 402.115Z" fill="#00160A"/>
<path fill-rule="evenodd" clip-rule="evenodd" d="M509.516 366.903C507.05 366.606 504.504 366.986 502.238 367.987C501.653 368.246 501.084 367.396 501.338 366.817C501.591 366.238 502.253 365.962 502.858 365.753C506.356 364.543 510.798 363.944 513.293 366.642C512.225 367.36 510.8 367.057 509.516 366.903Z" fill="#00160A"/>
<path fill-rule="evenodd" clip-rule="evenodd" d="M482.601 379.757C482.659 381.63 480.855 383.152 478.98 383.486C477.105 383.82 475.197 383.27 473.374 382.726C471.787 382.252 471.293 380.06 472.13 378.652C472.967 377.244 474.662 376.548 476.299 376.284C477.648 376.067 479.08 376.09 480.319 376.656C481.558 377.222 482.56 378.414 482.601 379.757ZM473.81 380.206C473.899 380.767 474.567 381.011 475.128 381.146C476.217 381.409 477.34 381.673 478.449 381.511C479.559 381.349 480.665 380.655 480.954 379.589C479.306 377.914 476.364 377.684 474.468 379.082C474.098 379.355 473.738 379.757 473.81 380.206Z" fill="#00160A"/>
<path fill-rule="evenodd" clip-rule="evenodd" d="M454.074 370.204C450.784 370.211 447.493 370.218 444.203 370.226C443.509 370.227 442.531 369.869 442.765 369.227C446.201 367.758 450.19 367.579 453.747 368.736C454.402 368.948 455.114 369.817 454.505 370.134C454.375 370.202 454.221 370.203 454.074 370.204Z" fill="#00160A"/>
<path fill-rule="evenodd" clip-rule="evenodd" d="M490.479 357.891C490.666 356.734 490.989 355.396 492.077 354.92C493.124 354.462 494.397 355.116 494.999 356.075C495.602 357.034 495.704 358.207 495.79 359.331C494.305 359.464 492.821 359.597 491.337 359.73C490.543 359.802 490.353 358.665 490.479 357.891Z" fill="#00160A"/>
<path fill-rule="evenodd" clip-rule="evenodd" d="M503.363 371.707C502.884 371.61 502.391 371.506 501.992 371.228C501.705 371.029 501.481 370.743 501.356 370.42C504.709 369.03 508.98 370.29 511.002 373.265C508.455 372.746 505.909 372.226 503.363 371.707Z" fill="#00160A"/>
<path fill-rule="evenodd" clip-rule="evenodd" d="M496.462 351.611C497.314 350.27 499.44 350.899 500.725 351.848C501.993 352.785 503.127 353.894 504.086 355.136C504.044 355.865 502.891 355.7 502.267 355.303C500.332 354.072 498.397 352.842 496.462 351.611Z" fill="#00160A"/>
<path fill-rule="evenodd" clip-rule="evenodd" d="M449.941 373.74C451.297 373.284 452.654 372.828 454.011 372.372C454.554 372.189 455.135 372.004 455.693 372.139C456.251 372.274 456.732 372.87 456.518 373.394C453.853 374.374 451.153 375.263 448.426 376.06C447.993 375.693 448.082 374.968 448.457 374.544C448.832 374.12 449.4 373.922 449.941 373.74Z" fill="#00160A"/>
<path fill-rule="evenodd" clip-rule="evenodd" d="M461.196 356.921C461.714 357.265 461.98 357.865 462.221 358.432C462.541 359.187 462.867 360 462.694 360.8C462.521 361.599 461.608 362.289 460.861 361.93C460.015 361.524 459.095 363.014 458.261 362.583C457.866 362.38 457.79 361.866 457.761 361.428C457.683 360.252 457.621 359.004 458.188 357.965C458.755 356.926 460.202 356.261 461.196 356.921Z" fill="#00160A"/>
<path fill-rule="evenodd" clip-rule="evenodd" d="M450.845 356.395C452.095 353.373 455.68 351.481 458.932 352.127C459.374 352.215 459.92 352.54 459.764 352.956C459.681 353.176 459.432 353.281 459.208 353.362C456.42 354.373 453.633 355.384 450.845 356.395Z" fill="#00160A"/>
<path fill-rule="evenodd" clip-rule="evenodd" d="M467.449 371.67C466.749 371.757 465.856 371.691 465.593 371.047C466.063 370.678 466.626 370.286 467.212 370.42C467.797 370.554 468.01 371.56 467.421 371.682L467.449 371.67Z" fill="#00160A"/>
<path fill-rule="evenodd" clip-rule="evenodd" d="M481.478 370.682C482.215 370.561 482.603 369.542 482.128 368.975C481.654 368.407 480.562 368.586 480.3 369.274C480.037 369.962 480.741 370.803 481.478 370.682Z" fill="#00160A"/>
<path fill-rule="evenodd" clip-rule="evenodd" d="M465.1 375.598C464.067 375.451 462.74 374.79 463.057 373.813C464.195 373.168 465.606 373.719 466.906 373.904C468.206 374.089 469.96 373.39 469.745 372.116C469.963 372.653 470.18 373.19 470.397 373.726C471.72 373.38 472.955 372.713 473.962 371.801C474.532 371.286 475.04 370.401 474.534 369.825C473.363 368.492 474.635 365.993 476.422 366.116C478.209 366.238 479.116 368.886 477.769 370.047C477.419 370.347 477.771 370.9 478.133 371.186C480.661 373.182 484.186 373.891 487.308 373.032C488.704 372.648 490.487 372.084 491.375 373.212C486.921 376.374 480.153 375.824 476.288 371.986C474.113 375.475 469.219 376.184 465.1 375.598Z" fill="#00160A"/>
<path fill-rule="evenodd" clip-rule="evenodd" d="M486.087 369.596C486.516 369.786 486.583 370.47 486.199 370.737C485.814 371.005 485.181 370.715 485.141 370.253C485.304 369.911 485.68 369.677 486.064 369.681L486.087 369.596Z" fill="#00160A"/>
<path fill-rule="evenodd" clip-rule="evenodd" d="M469.913 370.078C470.363 370.756 471.681 369.912 471.231 369.233C470.782 368.554 469.463 369.399 469.913 370.078Z" fill="#00160A"/>
<path fill-rule="evenodd" clip-rule="evenodd" d="M432.478 168.054C430.748 168.243 428.884 168.658 427.352 167.844C429.164 166.169 431.868 165.843 434.352 165.964C438.561 166.168 442.713 167.425 446.311 169.584C445.555 170.953 443.469 170.28 442.037 169.617C439.078 168.246 435.729 167.699 432.478 168.054Z" fill="#00160A"/>
<path fill-rule="evenodd" clip-rule="evenodd" d="M493.28 153.832C493.005 152.809 492.991 151.973 493.939 151.474C495.321 150.747 499.681 150.815 500.152 151.872C500.623 152.929 498.83 157.791 496.315 157.791C495.309 157.791 493.556 154.855 493.28 153.832Z" fill="#00160A"/>
<path fill-rule="evenodd" clip-rule="evenodd" d="M520.946 165.877C515.532 166.208 510.172 167.371 505.119 169.31C504.426 169.576 503.36 169.68 503.203 168.965C504.085 167.507 505.856 166.854 507.512 166.378C511.219 165.312 515.035 164.614 518.883 164.298C519.439 164.252 520.033 164.222 520.52 164.491C521.006 164.76 521.293 165.447 520.946 165.877Z" fill="#00160A"/>
<path fill-rule="evenodd" clip-rule="evenodd" d="M522.038 171.849C517.757 172.225 513.476 172.601 509.195 172.978C508.413 173.046 507.244 172.533 507.694 171.902C512.098 170.548 516.721 169.889 521.335 169.957C522.475 169.974 523.799 170.135 524.399 171.09C523.793 171.67 522.88 171.774 522.038 171.849Z" fill="#00160A"/>
<path fill-rule="evenodd" clip-rule="evenodd" d="M459.083 158.142C458.175 159.192 456.335 158.891 455.363 157.899C454.391 156.908 454.06 155.485 453.767 154.138C453.615 153.436 453.481 152.637 453.906 152.054C454.353 151.441 460.564 151.397 460.86 151.923C461.155 152.448 460.972 152.891 460.86 153.299C460.655 154.04 459.74 157.383 459.083 158.142Z" fill="#00160A"/>
<path fill-rule="evenodd" clip-rule="evenodd" d="M426.654 174.795C432.053 172.608 438.078 171.942 443.837 172.895C444.453 172.997 445.131 173.157 445.481 173.666C445.832 174.175 445.494 175.085 444.875 174.998C438.185 174.063 430.924 174.131 425.231 177.71C424.634 177.375 424.592 176.483 424.974 175.92C425.356 175.358 426.018 175.053 426.654 174.795Z" fill="#00160A"/>
<path fill-rule="evenodd" clip-rule="evenodd" d="M466.293 180.026C466.015 179.24 466.612 178.277 467.45 178.158C467.785 178.373 468.004 178.751 468.022 179.144C467.761 179.75 467.074 180.15 466.408 180.085L466.293 180.026Z" fill="#00160A"/>
<path fill-rule="evenodd" clip-rule="evenodd" d="M457.559 145.951C458.494 145.965 459.777 146.581 459.368 147.408C455.302 147.642 451.287 148.7 447.647 150.497C447.11 150.444 446.855 149.743 447.062 149.253C447.27 148.764 447.763 148.458 448.237 148.205C451.08 146.687 454.324 145.903 457.559 145.951Z" fill="#00160A"/>
<path fill-rule="evenodd" clip-rule="evenodd" d="M480.25 179.355C480.843 178.727 482.035 178.831 482.507 179.55C482.045 180.417 480.495 180.331 480.135 179.419L480.25 179.355Z" fill="#00160A"/>
<path fill-rule="evenodd" clip-rule="evenodd" d="M484.37 178.937C484.782 178.347 485.953 178.857 485.786 179.554C485.612 179.905 485.225 180.143 484.828 180.142C484.372 179.97 484.146 179.369 484.381 178.947L484.37 178.937Z" fill="#00160A"/>
<path fill-rule="evenodd" clip-rule="evenodd" d="M470.383 175.731C469.97 176.321 468.8 175.811 468.967 175.114C469.14 174.763 469.528 174.525 469.924 174.526C470.381 174.698 470.606 175.3 470.372 175.722L470.383 175.731Z" fill="#00160A"/>
<path fill-rule="evenodd" clip-rule="evenodd" d="M463.473 177.342C463.437 178.026 464.302 178.577 464.923 178.266C465.543 177.955 465.596 176.942 465.012 176.569C464.427 176.197 463.509 176.658 463.473 177.342Z" fill="#00160A"/>
<path fill-rule="evenodd" clip-rule="evenodd" d="M481.107 176.915C481.698 177.351 482.704 176.927 482.792 176.206C482.88 175.485 482.004 174.84 481.325 175.126C480.645 175.412 480.515 176.48 481.107 176.915Z" fill="#00160A"/>
<path fill-rule="evenodd" clip-rule="evenodd" d="M492.084 147.997C495.561 145.523 500.374 146.658 504.478 147.894C505.121 148.087 505.925 148.667 505.554 149.218C505.332 149.547 504.847 149.536 504.449 149.488C500.328 148.991 496.206 148.494 492.084 147.997Z" fill="#00160A"/>
<path fill-rule="evenodd" clip-rule="evenodd" d="M476.534 176.917C477.785 180.74 482.282 183.22 486.252 182.275C487.998 181.86 489.993 180.926 491.424 181.993C488.913 184.06 485.379 184.864 482.2 184.091C479.021 183.318 476.275 180.988 475.033 178.008C472.571 181.382 468.668 183.703 464.485 184.28C463.861 184.366 463.152 184.391 462.679 183.98C462.206 183.569 462.331 182.589 462.96 182.546C466.412 182.31 469.761 180.819 472.219 178.424C473.554 177.124 474.651 175.034 473.584 173.513C472.589 172.097 471.79 170.549 471.213 168.924C470.999 168.321 470.834 167.598 471.227 167.091C471.518 166.716 472.025 166.587 472.492 166.481C473.913 166.161 475.383 165.839 476.814 166.106C478.246 166.373 479.64 167.391 479.851 168.809C480.299 171.804 475.591 174.035 476.534 176.917Z" fill="#00160A"/>
<path fill-rule="evenodd" clip-rule="evenodd" d="M193.17 166.591C193.479 165.709 195.15 166.014 195.115 166.947C194.765 167.823 193.108 167.501 193.124 166.56L193.17 166.591Z" fill="#00160A"/>
<path fill-rule="evenodd" clip-rule="evenodd" d="M178.092 170.649C177.901 169.708 176.074 170.065 176.264 171.006C176.454 171.947 178.282 171.59 178.092 170.649Z" fill="#00160A"/>
<path fill-rule="evenodd" clip-rule="evenodd" d="M180.684 172.243C181.121 171.712 181.893 171.473 182.561 171.662C182.78 171.929 182.849 172.308 182.738 172.634C182.242 172.832 181.747 173.031 181.252 173.229C181.042 172.918 180.832 172.606 180.622 172.295L180.684 172.243Z" fill="#00160A"/>
<path fill-rule="evenodd" clip-rule="evenodd" d="M180.905 170.011C180.572 169.783 180.349 169.408 180.309 169.011C180.671 168.273 181.95 168.265 182.321 168.998C181.979 169.481 181.473 169.85 180.904 170.031L180.905 170.011Z" fill="#00160A"/>
<path fill-rule="evenodd" clip-rule="evenodd" d="M169.257 172.442C168.762 173.077 167.645 172.253 167.778 171.463C167.912 170.674 168.663 170.161 169.299 169.661C170.656 168.596 171.75 167.208 173.227 166.311C174.704 165.414 176.82 165.156 178.052 166.358C174.585 167.449 171.473 169.602 169.257 172.442Z" fill="#00160A"/>
<path fill-rule="evenodd" clip-rule="evenodd" d="M165.02 163.813C167.029 161.964 169.528 160.633 172.2 159.988C172.771 159.851 173.395 159.748 173.928 159.99C174.462 160.231 174.8 160.953 174.442 161.411C171.041 162.005 167.841 163.662 165.418 166.083C164.977 166.523 164.142 165.991 164.119 165.374C164.097 164.757 164.561 164.235 165.02 163.813Z" fill="#00160A"/>
<path fill-rule="evenodd" clip-rule="evenodd" d="M190.46 167.193C190.399 166.739 191.189 166.987 191.424 167.381C191.103 167.852 190.782 168.323 190.461 168.794C189.794 168.582 189.763 167.458 190.418 167.211L190.46 167.193Z" fill="#00160A"/>
<path fill-rule="evenodd" clip-rule="evenodd" d="M210.334 164.727C207.426 163.847 204.519 162.967 201.612 162.086C200.932 161.88 200.187 161.625 199.842 161.013C203.855 160.12 208.269 161.177 211.415 163.785C211.548 163.895 211.685 164.017 211.728 164.182C211.881 164.767 210.921 164.905 210.334 164.727Z" fill="#00160A"/>
<path fill-rule="evenodd" clip-rule="evenodd" d="M191.077 169.868C191.401 169.487 192.088 169.497 192.4 169.888C192.711 170.279 192.557 170.938 192.102 171.156C191.427 171.09 190.846 170.492 190.812 169.824L191.077 169.868Z" fill="#00160A"/>
<path fill-rule="evenodd" clip-rule="evenodd" d="M208.281 170.926C205.265 169.885 202.25 168.845 199.234 167.804C198.988 167.719 198.727 167.624 198.568 167.419C198.221 166.97 198.623 166.272 199.17 166.104C199.718 165.936 200.305 166.124 200.846 166.31C202.471 166.871 204.096 167.431 205.721 167.991C207.112 168.471 208.825 169.579 208.281 170.926Z" fill="#00160A"/>
<path fill-rule="evenodd" clip-rule="evenodd" d="M603.206 42.1654C614.155 46.5254 621.603 57.0212 625.057 68.1287C628.512 79.2362 628.546 91.0532 628.551 102.669C628.586 188.728 628.621 274.787 628.657 360.846C628.657 373.436 628.558 386.521 623.004 397.865C617.912 408.264 608.273 416.417 597.055 419.813C588.913 422.277 580.245 422.295 571.727 422.295C410.435 422.267 249.143 422.24 87.8508 422.212C79.8151 422.211 71.2231 422.047 64.6084 417.561C54.0161 410.376 52.9686 395.655 52.9646 383.001C52.933 284.674 52.9013 186.346 52.8696 88.0189C52.8696 80.7106 52.8959 73.2231 55.4641 66.365C59.8968 54.5275 71.4119 46.3448 83.6533 42.5726C95.8946 38.8005 108.958 38.7807 121.787 38.7931C150.815 38.8255 179.843 38.8567 208.871 38.8878C332.783 39.0208 456.696 39.1537 580.608 39.2867C588.254 39.2949 596.12 39.3434 603.206 42.1654ZM333.352 420.229C333.283 357.66 333.214 295.091 333.145 232.522C241.626 232.559 150.107 232.595 58.5879 232.632C57.8003 232.632 56.9186 232.67 56.3755 233.231C55.8655 233.758 55.8351 234.562 55.8345 235.29C55.7935 287.794 55.7525 340.298 55.7113 392.802C55.7113 395.537 55.7113 398.297 56.2985 400.971C58.2458 409.815 66.446 416.281 75.2353 418.963C84.0245 421.645 93.435 421.238 102.631 420.9C138.239 419.593 173.882 419.709 209.514 419.825C250.794 419.96 292.073 420.094 333.352 420.229ZM335.702 232.796C335.756 295.2 335.809 357.603 335.862 420.006C416.081 419.932 496.299 419.859 576.517 419.785C582.55 419.78 588.647 419.767 594.514 418.387C608.319 415.142 619.736 404.014 623.801 390.642C626.202 382.742 626.203 374.357 626.183 366.112C626.08 321.564 625.977 277.015 625.874 232.467C529.15 232.577 432.426 232.686 335.702 232.796ZM335.673 42.0812C335.757 104.647 335.84 167.214 335.924 229.78C431.766 229.786 527.607 229.793 623.449 229.799C624.247 229.799 625.164 229.745 625.651 229.123C626 228.677 626.015 228.069 626.015 227.506C626.029 181.901 626.043 136.296 626.057 90.691C626.057 83.9588 626.05 77.1406 624.333 70.6236C619.641 52.8148 601.003 39.6286 582.34 40.9137C568.501 41.8667 554.615 41.8799 540.742 41.8927C472.386 41.9555 404.029 42.0184 335.673 42.0812ZM333.347 229.538C333.271 166.979 333.195 104.421 333.119 41.862C254.097 41.8343 175.076 41.8066 96.0542 41.7789C77.4178 41.7723 59.8372 56.1964 56.5054 74.227C55.6367 78.9282 55.642 83.7377 55.6485 88.5158C55.7288 135.535 55.8076 182.554 55.8864 229.574C148.373 229.951 240.861 229.939 333.347 229.538Z" fill="#00160A"/>
<path fill-rule="evenodd" clip-rule="evenodd" d="M188.228 167.198C187.666 168.644 188.38 170.319 189.511 171.398C191.159 172.97 193.697 173.572 195.893 172.913C197.473 172.438 199.387 171.441 200.557 172.588C197.073 176.04 190.457 175.553 187.534 171.631C186.62 173.973 184.529 175.838 182.07 176.504C179.61 177.169 176.843 176.62 174.839 175.068C176.312 173.868 178.496 174.804 180.408 174.815C182.431 174.827 184.409 173.609 185.283 171.815C186.157 170.022 185.881 167.743 184.605 166.2C183.303 164.627 182.295 162.819 181.646 160.893C181.496 160.447 181.365 159.962 181.51 159.514C181.807 158.598 183.004 158.381 183.981 158.332C185.984 158.234 187.989 158.18 189.994 158.172C190.957 158.169 192.125 158.297 192.529 159.156C192.796 159.723 192.603 160.388 192.369 160.968C191.76 162.48 190.883 163.887 189.791 165.107C189.206 165.76 188.544 166.385 188.228 167.198Z" fill="#00160A"/>
<path fill-rule="evenodd" clip-rule="evenodd" d="M205.371 128.701C202.407 128.159 199.285 128.485 196.504 129.628C196.117 129.787 195.671 129.961 195.298 129.773C194.843 129.544 194.796 128.874 195.079 128.455C195.362 128.037 195.859 127.815 196.336 127.635C201.256 125.781 206.995 126.16 211.617 128.645C209.856 129.851 207.481 129.087 205.371 128.701Z" fill="#00160A"/>
<path fill-rule="evenodd" clip-rule="evenodd" d="M203.919 143.431C203.669 143.912 203.369 144.407 202.879 144.652C202.152 145.015 201.209 144.676 200.714 144.039C200.218 143.403 200.098 142.552 200.159 141.752C200.282 140.12 201.719 138.288 203.286 138.841C204.965 139.434 204.731 141.868 203.919 143.431Z" fill="#00160A"/>
<path fill-rule="evenodd" clip-rule="evenodd" d="M175.152 140.64C175.328 142.028 174.704 143.582 173.414 144.17C172.124 144.758 170.288 143.961 170.15 142.569C170.102 142.085 170.245 141.604 170.396 141.141C170.836 139.789 171.738 138.199 173.176 138.32C174.283 138.413 175.014 139.556 175.152 140.64Z" fill="#00160A"/>
<path fill-rule="evenodd" clip-rule="evenodd" d="M162.584 130.696C162.353 129.971 163.247 129.417 163.984 129.19C168.329 127.855 173.026 127.643 177.476 128.582C178.131 128.72 178.852 128.934 179.178 129.509C179.505 130.083 179.005 131.024 178.369 130.818C173.997 129.406 169.143 129.485 164.821 131.039C164.022 131.326 162.837 131.495 162.584 130.696Z" fill="#00160A"/>
<path fill-rule="evenodd" clip-rule="evenodd" d="M226.731 94.1761C226.304 100.841 225.876 107.525 226.277 114.191C226.589 119.38 227.402 124.54 227.476 129.737C227.691 144.759 221.702 159.309 213.555 172.018C233.114 184.953 247.86 204.771 254.478 227.017C251.659 225.287 250.446 221.935 249.262 218.881C242.724 202.018 231.22 187.05 216.506 176.264C214.396 174.717 210.809 173.548 209.642 175.868C207.006 181.109 203.109 185.731 198.361 189.251C196.639 190.528 194.711 191.79 193.365 193.393C193.377 193.524 193.382 193.656 193.382 193.79C193.382 196.501 191.147 198.698 188.39 198.698C186.516 198.698 184.883 197.683 184.029 196.181C171.602 190.808 161.489 180.378 156.733 167.862C147.646 174.058 142.406 184.603 140.398 195.296C138.389 205.988 139.243 216.976 140.104 227.817C139.196 228.422 138.347 226.961 138.244 225.888C137.195 215.034 136.607 203.983 138.897 193.315C141.187 182.647 146.66 172.279 155.702 165.968C147.31 148.004 150.574 125.965 140.337 108.95C139.729 107.94 139.217 106.364 140.282 105.832C140.676 105.635 141.148 105.696 141.584 105.769C148.722 106.96 155.524 110.046 161.076 114.615C162.508 115.794 164.651 114.933 166.325 114.118C179.187 107.855 194.547 106.733 208.209 111.059C211.641 104.573 216.698 98.926 222.806 94.7567C223.984 93.9524 225.671 93.226 226.731 94.1761ZM182.609 181.835C187.012 182.215 191.497 182.59 195.811 181.648C205.679 179.494 212.758 170.908 217.279 162.018C222.456 151.838 225.357 140.546 225.716 129.17C222.524 131.694 219.333 134.219 216.141 136.743C214.251 138.238 212.186 140.078 212.222 142.463C212.274 145.855 210.137 149.184 207.001 150.598C203.865 152.011 199.906 151.43 197.326 149.178C194.415 146.636 192.762 142.034 188.884 141.699C184.311 141.304 182.132 147.07 178.452 149.769C173.762 153.209 166.194 150.626 163.853 145.354C163.408 144.351 163.567 142.571 162.547 141.961C159.294 140.014 155.702 139.943 151.463 140.081C152.218 149.163 154.454 158.125 158.059 166.52C159.656 170.239 161.603 173.953 164.739 176.56C169.568 180.576 176.308 181.292 182.609 181.835ZM209.108 113.118C207.685 115.788 205.298 119.129 202.436 118.051C204.274 116.502 205.863 114.666 207.123 112.634C192.88 108.642 177.101 110.234 163.979 116.988C165.109 118.332 166.498 119.464 168.05 120.306C166.408 121.845 163.873 119.959 162.319 118.334C157.029 112.804 149.798 109.104 142.156 108.018C145.292 112.966 148.191 122.768 150.853 137.424C155.168 138.383 158.067 138.879 159.553 138.91C161.263 138.946 163.345 138.771 164.093 137.259C166.067 133.264 171.011 130.933 175.415 131.922C179.819 132.911 183.244 137.12 183.259 141.562C186.116 139.723 189.937 139.43 193.048 140.814C193.372 137.034 196.284 133.6 200.008 132.607C203.731 131.614 208.009 133.131 210.231 136.232C211.197 137.581 213.336 136.591 214.618 135.526C217.275 133.319 219.932 131.113 222.588 128.906C224.085 127.663 225.732 126.05 225.418 124.148C223.864 114.728 223.67 105.093 224.844 95.6206C218.269 100.094 212.819 106.154 209.108 113.118ZM202.318 180.936C195.924 185.207 187.485 184.462 179.811 183.548C175.619 183.049 171.282 182.502 167.678 180.338C166.938 179.894 165.967 179.385 165.283 179.91C169.579 185.182 175.142 189.449 181.387 192.263C182.316 192.681 183.684 192.928 184.124 192.022C185.136 189.938 188.206 189.166 190.111 190.517C191.66 191.615 193.802 190.56 195.333 189.437C198.77 186.915 201.908 183.999 204.662 180.765C204.259 179.98 203.058 180.442 202.318 180.936ZM166.059 145.545C167.986 148.745 172.384 150.252 175.916 148.925C179.449 147.598 181.704 143.591 180.97 139.943C180.237 136.294 176.602 133.432 172.821 133.526C169.041 133.62 165.557 136.659 165.012 140.339C164.748 142.124 165.124 143.994 166.059 145.545ZM195.425 140.014C194.971 142.656 196.023 145.442 197.93 147.357C199.33 148.764 201.261 149.758 203.262 149.685C206.839 149.555 209.44 146.192 210.544 142.844C210.832 141.97 211.058 141.042 210.883 140.14C210.656 138.97 209.791 138.024 208.889 137.229C206.623 135.235 203.566 133.724 200.602 134.393C197.946 134.994 195.879 137.371 195.425 140.014Z" fill="#00160A"/>
</svg>
